<svg width="27" height="26" viewBox="0 0 27 26" fill="none" xmlns="http://www.w3.org/2000/svg">
<path d="M17.6381 0.536621H8.66958C3.88935 0.536621 0 4.54117 0 9.46536V11.9044C0 15.7429 2.37068 19.1415 5.90129 20.3625L6.24808 20.4825L6.06572 20.8085C5.59337 21.6451 4.95362 22.9584 4.11058 24.8223C4.00893 25.0468 4.05378 25.3144 4.22418 25.4897C4.39159 25.662 4.65766 25.7112 4.86991 25.6128L15.0283 20.83H17.6381C22.4183 20.83 26.3077 16.8255 26.3077 11.9044V9.46536C26.3077 4.54117 22.4183 0.536621 17.6381 0.536621ZM6.37722 12.5706C5.47619 12.5706 4.74316 11.8164 4.74316 10.8891C4.74316 9.96208 5.47619 9.20792 6.37722 9.20792C7.27826 9.20792 8.01129 9.96208 8.01129 10.8891C8.01129 11.8164 7.27826 12.5706 6.37722 12.5706ZM13.1538 12.5706C12.2528 12.5706 11.5198 11.8164 11.5198 10.8891C11.5198 9.96208 12.2528 9.20792 13.1538 9.20792C14.0549 9.20792 14.7879 9.96208 14.7879 10.8891C14.7879 11.8164 14.0549 12.5706 13.1538 12.5706ZM19.9305 12.5706C19.0294 12.5706 18.2964 11.8164 18.2964 10.8891C18.2964 9.96208 19.0294 9.20792 19.9305 9.20792C20.8315 9.20792 21.5645 9.96208 21.5645 10.8891C21.5648 11.8164 20.8318 12.5706 19.9305 12.5706Z" fill="white"/>
</svg>
