<svg width="34" height="18" viewBox="0 0 34 18" fill="none" xmlns="http://www.w3.org/2000/svg">
<g filter="url(#filter0_d_244_595)">
<path d="M10.9303 9.15544C10.9303 9.64336 10.7897 10.1203 10.5262 10.526C10.2627 10.9317 9.88824 11.2479 9.45009 11.4346C9.01195 11.6213 8.52982 11.6702 8.06469 11.575C7.59955 11.4798 7.1723 11.2449 6.83695 10.8998C6.50161 10.5548 6.27324 10.1153 6.18072 9.63672C6.0882 9.15818 6.13568 8.66215 6.31717 8.21137C6.49866 7.7606 6.80599 7.37531 7.20031 7.10424C7.59464 6.83316 8.05823 6.68848 8.53248 6.68848C9.16843 6.68848 9.77833 6.94839 10.228 7.41103C10.6777 7.87368 10.9303 8.50116 10.9303 9.15544ZM16.9249 6.68848C16.4507 6.68848 15.9871 6.83316 15.5927 7.10424C15.1984 7.37531 14.8911 7.7606 14.7096 8.21137C14.5281 8.66215 14.4806 9.15818 14.5731 9.63672C14.6657 10.1153 14.894 10.5548 15.2294 10.8998C15.5647 11.2449 15.992 11.4798 16.4571 11.575C16.9222 11.6702 17.4044 11.6213 17.8425 11.4346C18.2807 11.2479 18.6552 10.9317 18.9186 10.526C19.1821 10.1203 19.3227 9.64336 19.3227 9.15544C19.3227 8.50116 19.0701 7.87368 18.6204 7.41103C18.1708 6.94839 17.5609 6.68848 16.9249 6.68848ZM25.3173 6.68848C24.8431 6.68848 24.3795 6.83316 23.9852 7.10424C23.5908 7.37531 23.2835 7.7606 23.102 8.21137C22.9205 8.66215 22.873 9.15818 22.9656 9.63672C23.0581 10.1153 23.2865 10.5548 23.6218 10.8998C23.9571 11.2449 24.3844 11.4798 24.8495 11.575C25.3147 11.6702 25.7968 11.6213 26.2349 11.4346C26.6731 11.2479 27.0476 10.9317 27.3111 10.526C27.5745 10.1203 27.7152 9.64336 27.7152 9.15544C27.7152 8.50116 27.4625 7.87368 27.0129 7.41103C26.5632 6.94839 25.9533 6.68848 25.3173 6.68848Z" fill="white"/>
</g>
<defs>
<filter id="filter0_d_244_595" x="0.134644" y="0.688477" width="33.5806" height="16.934" filterUnits="userSpaceOnUse" color-interpolation-filters="sRGB">
<feFlood flood-opacity="0" result="BackgroundImageFix"/>
<feColorMatrix in="SourceAlpha" type="matrix" values="0 0 0 0 0 0 0 0 0 0 0 0 0 0 0 0 0 0 127 0" result="hardAlpha"/>
<feOffset/>
<feGaussianBlur stdDeviation="3"/>
<feComposite in2="hardAlpha" operator="out"/>
<feColorMatrix type="matrix" values="0 0 0 0 0 0 0 0 0 0 0 0 0 0 0 0 0 0 0.18 0"/>
<feBlend mode="normal" in2="BackgroundImageFix" result="effect1_dropShadow_244_595"/>
<feBlend mode="normal" in="SourceGraphic" in2="effect1_dropShadow_244_595" result="shape"/>
</filter>
</defs>
</svg>
