<svg width="21" height="25" viewBox="0 0 21 25" fill="none" xmlns="http://www.w3.org/2000/svg">
<path d="M10.5 24.7059C12.1556 24.7059 13.4986 23.3234 13.4986 21.6176H7.50142C7.50142 23.3234 8.84438 24.7059 10.5 24.7059ZM20.5964 17.4818C19.6908 16.4801 17.9962 14.9731 17.9962 10.0368C17.9962 6.28745 15.4425 3.28608 11.9991 2.54972V1.54412C11.9991 0.691475 11.3278 0 10.5 0C9.67219 0 9.00094 0.691475 9.00094 1.54412V2.54972C5.55752 3.28608 3.00377 6.28745 3.00377 10.0368C3.00377 14.9731 1.30925 16.4801 0.403625 17.4818C0.122376 17.7931 -0.00231133 18.1651 3.24087e-05 18.5294C0.00518864 19.3208 0.608468 20.0735 1.50472 20.0735H19.4953C20.3915 20.0735 20.9953 19.3208 21 18.5294C21.0023 18.1651 20.8776 17.7926 20.5964 17.4818Z" fill="#083D77"/>
</svg>
