<?xml version="1.0" encoding="UTF-8" standalone="no" ?>
<!DOCTYPE svg PUBLIC "-//W3C//DTD SVG 1.1//EN" "http://www.w3.org/Graphics/SVG/1.1/DTD/svg11.dtd">
<svg xmlns="http://www.w3.org/2000/svg" xmlns:xlink="http://www.w3.org/1999/xlink" version="1.1" width="500" height="500" viewBox="0 0 500 500" xml:space="preserve">
<desc>Created with Fabric.js 4.6.0</desc>
<defs>
</defs>
<g transform="matrix(11.81 0 0 11.81 135.29 277.32)" id="_jJE5oGPRMZbrtoecG9LE"  >
<path style="stroke: none; stroke-width: 1; stroke-dasharray: none; stroke-linecap: butt; stroke-dashoffset: 0; stroke-linejoin: miter; stroke-miterlimit: 4; fill: rgb(255,255,255); fill-rule: nonzero; opacity: 1;" vector-effect="non-scaling-stroke"  transform=" translate(-62.31, -114.86)" d="M 60.8688 104.574 C 60.4719 104.667 60.2354 104.82 60.0665 105.109 C 59.906 105.373 59.8976 105.577 59.8976 109.647 C 59.8976 113.412 59.8807 113.922 59.7624 114.041 C 59.5851 114.228 59.281 114.211 59.1037 114.016 C 58.9601 113.863 58.9517 113.557 58.9854 109.656 L 59.0108 105.466 L 58.825 105.169 C 58.4872 104.625 57.9973 104.472 57.4146 104.727 C 56.7474 105.024 56.7727 104.854 56.7727 109.656 C 56.7727 113.659 56.7643 113.905 56.6207 114.033 C 56.4433 114.194 56.2068 114.22 56.0126 114.092 C 55.9028 114.024 55.8775 113.54 55.8437 110.863 L 55.8015 107.701 L 55.5227 107.455 C 55.0329 107.013 54.3319 107.174 54.0785 107.786 C 54.0025 107.965 53.9856 109.63 54.011 114.356 C 54.0363 120.135 54.0532 120.721 54.1883 121.188 C 54.7542 123.092 56.0126 124.375 57.9129 124.996 C 58.7743 125.268 60.2861 125.251 61.4431 124.945 C 62.3299 124.707 63.6052 124.137 64.2471 123.695 C 64.9903 123.177 66.3416 121.783 70.2603 117.475 C 70.463 117.254 70.6235 117.016 70.6235 116.939 C 70.6235 116.735 70.1337 116.319 69.7029 116.174 C 69.1878 115.996 68.5459 116.013 68.0983 116.225 C 67.8871 116.319 67.3551 116.735 66.9074 117.143 L 66.0967 117.899 L 64.0275 117.933 C 61.6289 117.976 61.3671 118.035 60.5394 118.766 C 60.058 119.191 59.7709 119.285 59.5766 119.089 C 59.1459 118.656 60.0834 117.704 61.4009 117.22 C 61.8147 117.067 62.1357 117.033 63.6812 116.999 L 65.4717 116.965 L 65.4717 111.993 C 65.4717 107.149 65.4632 107.004 65.3028 106.741 C 64.8636 106.036 63.867 106.027 63.4447 106.724 C 63.2843 106.979 63.2758 107.174 63.2758 110.395 C 63.2758 113.336 63.2589 113.829 63.1407 113.99 C 62.9718 114.228 62.5579 114.245 62.4313 114.016 C 62.3806 113.905 62.3468 112.384 62.3468 109.647 L 62.3468 105.449 L 62.161 105.169 C 61.8147 104.659 61.3671 104.455 60.8688 104.574 Z" stroke-linecap="round" />
</g>
<g transform="matrix(11.81 0 0 11.81 365.12 278.15)" id="s1bm5QXfEf2gYZggtOSkb"  >
<path style="stroke: none; stroke-width: 1; stroke-dasharray: none; stroke-linecap: butt; stroke-dashoffset: 0; stroke-linejoin: miter; stroke-miterlimit: 4; fill: rgb(255,255,255); fill-rule: nonzero; opacity: 1;" vector-effect="non-scaling-stroke"  transform=" translate(-81.77, -114.93)" d="M 82.481 104.693 C 82.3374 104.761 82.1263 104.94 82.0165 105.093 L 81.8138 105.382 L 81.7716 109.682 C 81.7294 114.279 81.7294 114.262 81.3071 114.262 C 81.2057 114.262 81.0621 114.194 80.9861 114.109 C 80.8679 113.974 80.8426 113.54 80.8257 110.404 L 80.8003 106.852 L 80.4878 106.563 C 80.2176 106.316 80.1078 106.274 79.7531 106.274 C 79.297 106.274 78.9761 106.469 78.7818 106.852 C 78.6889 107.03 78.6551 108.135 78.6045 112.019 L 78.5454 116.956 L 79.5082 117.007 C 80.0318 117.041 80.8088 117.067 81.2311 117.067 C 82.4726 117.067 83.5452 117.492 84.263 118.265 C 84.6853 118.724 84.7191 118.86 84.4742 119.107 C 84.2293 119.353 84.111 119.319 83.6381 118.903 C 83.1144 118.435 82.4472 118.104 81.8054 118.002 C 81.5351 117.951 80.5554 117.917 79.6348 117.917 L 77.9542 117.917 L 77.1856 117.186 C 76.2059 116.251 75.7161 116.005 74.9813 116.064 C 74.1959 116.132 73.4949 116.549 73.4949 116.956 C 73.4949 117.075 73.6807 117.356 73.9847 117.687 C 78.9845 123.22 79.4068 123.636 80.9692 124.384 C 83.1398 125.429 85.361 125.557 87.0079 124.716 C 88.1058 124.155 88.9926 123.271 89.5078 122.192 C 90.0398 121.087 90.0398 121.087 90.0483 114.16 C 90.0567 109.826 90.0314 107.846 89.9723 107.727 C 89.8203 107.455 89.5331 107.294 89.1784 107.294 C 88.9166 107.294 88.7899 107.353 88.5619 107.583 L 88.2747 107.872 L 88.2747 110.829 C 88.2747 113.039 88.2494 113.846 88.1649 114.008 C 88.0382 114.262 87.6751 114.33 87.4808 114.135 C 87.3626 114.008 87.3457 113.557 87.3457 109.733 C 87.3457 105.653 87.3372 105.458 87.1768 105.195 C 86.8643 104.668 86.1971 104.506 85.6735 104.829 C 85.1498 105.152 85.1498 105.169 85.0907 109.809 C 85.0316 114.271 85.0316 114.262 84.6431 114.262 C 84.5586 114.262 84.4235 114.203 84.3559 114.126 C 84.2377 114.008 84.2208 113.498 84.2208 109.733 C 84.2208 105.628 84.2124 105.458 84.0519 105.186 C 83.7225 104.642 83.0722 104.438 82.481 104.693 Z" stroke-linecap="round" />
</g>
<g transform="matrix(11.81 0 0 11.81 106.35 432.86)" id="zXH37H9I19dVyJyhqGjhl"  >
<path style="stroke: none; stroke-width: 1; stroke-dasharray: none; stroke-linecap: butt; stroke-dashoffset: 0; stroke-linejoin: miter; stroke-miterlimit: 4; fill: rgb(255,255,255); fill-rule: nonzero; opacity: 1;" vector-effect="non-scaling-stroke"  transform=" translate(-59.86, -128.03)" d="M 63.0225 125.354 C 61.2827 126.135 58.9686 126.331 57.4991 125.821 C 57.2372 125.736 56.7896 125.541 56.5109 125.396 C 56.2322 125.26 55.9873 125.141 55.9704 125.141 C 55.9451 125.141 55.9366 126.407 55.9451 127.963 L 55.9704 130.784 L 56.1815 130.895 C 56.342 130.98 57.2457 131.005 59.9229 131.005 C 63.335 131.005 63.4532 130.997 63.6137 130.835 C 63.7741 130.674 63.7826 130.555 63.7826 127.861 C 63.7826 126.314 63.7573 125.056 63.7235 125.065 C 63.6812 125.073 63.3688 125.201 63.0225 125.354 Z" stroke-linecap="round" />
</g>
<g transform="matrix(11.81 0 0 11.81 392.87 433.45)" id="6K3reI7F_d2KMuSY408x2"  >
<path style="stroke: none; stroke-width: 1; stroke-dasharray: none; stroke-linecap: butt; stroke-dashoffset: 0; stroke-linejoin: miter; stroke-miterlimit: 4; fill: rgb(255,255,255); fill-rule: nonzero; opacity: 1;" vector-effect="non-scaling-stroke"  transform=" translate(-84.12, -128.08)" d="M 80.2177 125.965 C 80.1923 126.458 80.167 127.715 80.167 128.752 C 80.167 130.537 80.1754 130.656 80.3444 130.868 L 80.5133 131.089 L 84.1364 131.089 C 87.16 131.089 87.7765 131.072 87.8778 130.97 C 87.9707 130.877 88.013 130.46 88.0468 129.203 C 88.089 127.987 88.0721 125.506 88.0214 125.251 C 88.0214 125.242 87.7089 125.387 87.3289 125.565 C 86.4759 125.965 85.5722 126.16 84.584 126.16 C 83.3003 126.16 81.7125 125.795 80.6822 125.268 L 80.2768 125.064 L 80.2177 125.965 Z" stroke-linecap="round" />
</g>
<g transform="matrix(1 0 0 1 369.49 79.73)" id="jcPMun_kXQ3CBeD-RXyGs"  >
<path style="stroke: rgb(0,0,0); stroke-width: 1; stroke-dasharray: none; stroke-linecap: butt; stroke-dashoffset: 0; stroke-linejoin: miter; stroke-miterlimit: 4; fill: rgb(255,255,255); fill-opacity: 0; fill-rule: nonzero; opacity: 1;" vector-effect="non-scaling-stroke"  transform=" translate(0, 0)" d="M 0 0" stroke-linecap="round" />
</g>
</svg>