<svg width="37" height="37" viewBox="0 0 37 37" fill="none" xmlns="http://www.w3.org/2000/svg">
<circle cx="18.5" cy="18.5" r="18" fill="#777777" stroke="#4C4C4C"/>
<path d="M7.50918 32.1238C10.6247 34.63 14.5021 35.9974 18.4998 35.9999C22.4973 36.0153 26.3777 34.6477 29.4821 32.1284C30.1843 31.5622 30.8419 30.9432 31.4496 30.2765C33.8071 27.6823 35.3315 24.4399 35.8254 20.9691C36.3193 17.4985 35.7597 13.9595 34.2193 10.8107C32.6789 7.66168 30.2289 5.04794 27.186 3.3082C24.1432 1.56818 20.6483 0.782197 17.154 1.05189C13.6594 1.32157 10.3262 2.6347 7.58627 4.82066C4.8465 7.00689 2.82605 9.96583 1.78684 13.3139C0.747696 16.662 0.737616 20.2448 1.75778 23.5988C2.77823 26.9526 4.78186 29.9229 7.50911 32.124L7.50918 32.1238ZM18.4998 7.09463C19.9452 7.09463 21.3313 7.66903 22.3534 8.691C23.3755 9.71324 23.9498 11.0997 23.9498 12.5454C23.9498 13.991 23.3755 15.3774 22.3534 16.3997C21.3314 17.422 19.9452 17.9964 18.4998 17.9964C17.0544 17.9964 15.6683 17.422 14.6462 16.3997C13.6241 15.3775 13.0501 13.991 13.0501 12.5454C13.0501 11.0997 13.6241 9.71331 14.6462 8.691C15.6682 7.66905 17.0544 7.09463 18.4998 7.09463ZM18.5001 21.0415C26.3758 21.0415 29.8487 23.9618 30.4868 27.7925C30.2443 28.104 29.9921 28.409 29.7243 28.7032C29.197 29.2814 28.6265 29.8183 28.0175 30.3096C25.319 32.4814 21.959 33.665 18.4956 33.6642C15.032 33.6633 11.6726 32.4781 8.97519 30.305C8.36858 29.8153 7.80078 29.2797 7.27672 28.7029C7.00872 28.4093 6.75646 28.1049 6.51424 27.7936C7.15126 23.9624 10.6244 21.0415 18.501 21.0415L18.5001 21.0415Z" fill="#FCFCFC"/>
</svg>
