<svg width="35" height="29" viewBox="0 0 35 29" fill="none" xmlns="http://www.w3.org/2000/svg">
<rect width="35" height="29" rx="5" fill="#083D77"/>
<path d="M18.6097 10.8293C18.6097 8.17317 16.4365 6 13.7804 6C11.1243 6 8.95117 8.17317 8.95117 10.8293C8.95117 13.4854 11.1243 15.6585 13.7804 15.6585C16.4365 15.6585 18.6097 13.4854 18.6097 10.8293Z" fill="white"/>
<path d="M15.6902 16.6683C15.0756 16.8659 14.439 16.9756 13.7805 16.9756C13.122 16.9756 12.4854 16.8659 11.8707 16.6683C9.93902 16.0317 7.7878 16.5585 6.51463 18.1171C5.57073 19.2805 5 20.7732 5 22.3756C5 23.2756 5.72439 24 6.62439 24H20.9366C21.8366 24 22.561 23.2756 22.561 22.3756C22.561 20.7732 21.9902 19.2805 21.0463 18.1171C19.7512 16.5585 17.622 16.0317 15.6902 16.6683Z" fill="white"/>
<rect x="24.6899" y="8" width="1.8" height="8" rx="0.3" fill="white"/>
<rect x="29.6899" y="11" width="1.8" height="8" rx="0.3" transform="rotate(90 29.6899 11)" fill="white"/>
</svg>
