<svg width="30" height="25" viewBox="0 0 30 25" fill="none" xmlns="http://www.w3.org/2000/svg">
<rect width="30" height="24.86" rx="5" fill="#F78764"/>
<path d="M15.9512 9.2834C15.9512 7.00649 14.0885 5.14355 11.8118 5.14355C9.53517 5.14355 7.67245 7.00649 7.67245 9.2834C7.67245 11.5603 9.53517 13.4233 11.8118 13.4233C14.0885 13.4233 15.9512 11.5603 15.9512 9.2834Z" fill="white"/>
<path d="M13.4488 14.2888C12.9219 14.4582 12.3763 14.5523 11.8118 14.5523C11.2474 14.5523 10.7017 14.4582 10.1749 14.2888C8.51916 13.7431 6.67525 14.1947 5.58396 15.5308C4.7749 16.5281 4.28571 17.8077 4.28571 19.1814C4.28571 19.9529 4.90661 20.5739 5.67804 20.5739H17.9456C18.7171 20.5739 19.338 19.9529 19.338 19.1814C19.338 17.8077 18.8488 16.5281 18.0397 15.5308C16.9296 14.1947 15.1045 13.7431 13.4488 14.2888Z" fill="white"/>
<path d="M24.6829 10.186C24.5666 10.0698 24.4188 10.0064 24.2497 10.0064H24.2286C24.2391 9.84796 24.1757 9.67891 24.049 9.55215C23.9328 9.43593 23.7849 9.37256 23.6159 9.37256C23.4575 9.37256 23.299 9.43594 23.1828 9.55215L22.1898 10.5453C22.3271 10.7143 22.401 10.8834 22.4433 11.0735C22.475 11.2743 22.4538 11.4433 22.4011 11.5806C22.4645 11.6017 22.5278 11.6123 22.5912 11.6123H22.6123C22.6018 11.7707 22.6652 11.9398 22.7919 12.0665C22.9081 12.1827 23.056 12.2461 23.225 12.2461C23.3835 12.2461 23.542 12.1827 23.6582 12.0665L24.6828 11.0417C24.9152 10.8094 24.9152 10.429 24.6828 10.186L24.6829 10.186Z" fill="#FAFAFA"/>
<path d="M22.7709 9.15055C22.8554 9.30899 22.8765 9.47804 22.8554 9.65764L23.0773 9.43574C23.1301 9.3829 23.1829 9.34067 23.2463 9.30898L23.7005 7.6292C23.7427 7.47076 23.7217 7.31224 23.6371 7.16433C23.5526 7.02696 23.4259 6.92136 23.2674 6.87906C23.2145 6.86852 23.1617 6.85791 23.1089 6.85791C22.8343 6.85791 22.5913 7.04804 22.5174 7.31216L22.1371 8.71728C22.1899 8.72782 22.2322 8.72782 22.2745 8.74897C22.4856 8.81249 22.6652 8.96039 22.7709 9.15052L22.7709 9.15055Z" fill="#FAFAFA"/>
<path d="M20.5631 9.55212L21.6195 8.83375H21.63L21.218 7.3124C21.144 7.04828 20.9011 6.85815 20.6265 6.85815C20.5736 6.85815 20.5208 6.86869 20.468 6.8793C20.3096 6.92153 20.1828 7.02721 20.0983 7.16457C20.0138 7.30194 19.9926 7.47092 20.0349 7.62944L20.5631 9.55212Z" fill="#FAFAFA"/>
<path d="M23.2357 12.4257C23.0244 12.4257 22.8342 12.3411 22.6863 12.1932C22.6124 12.1192 22.549 12.0348 22.5173 11.9291L21.7567 12.3728L22.137 11.7495C22.1582 11.7178 22.2215 11.6228 22.2638 11.4749C22.2743 11.4432 22.2849 11.4115 22.2849 11.3692V11.348V11.3163V11.2952V11.253C22.2849 11.2107 22.2849 11.1579 22.2744 11.1051C22.2744 11.0945 22.2744 11.0839 22.2638 11.0734C22.2638 11.0522 22.2533 11.0312 22.2533 11.01C22.2533 10.9995 22.2533 10.9995 22.2428 10.9889C22.2428 10.9783 22.2322 10.9572 22.2322 10.9466C22.2322 10.9361 22.2217 10.9361 22.2217 10.9255C22.2217 10.9149 22.2111 10.9043 22.2111 10.8938C22.2111 10.8832 22.2006 10.8726 22.2006 10.8621C22.1901 10.8409 22.1795 10.8199 22.1689 10.8093C22.1689 10.7987 22.1584 10.7881 22.1478 10.7776C22.1372 10.767 22.1372 10.7564 22.1266 10.7459C22.1161 10.7353 22.1161 10.7247 22.1055 10.7142C22.0949 10.7037 22.0843 10.693 22.0843 10.6825C22.0843 10.672 22.0738 10.672 22.0738 10.6614L22.0315 10.6191C21.9575 10.5345 21.8625 10.4395 21.7569 10.3655L22.3167 10.0908C22.4752 10.0168 22.5914 9.87953 22.6442 9.71048C22.697 9.54142 22.6864 9.37237 22.602 9.21393C22.5175 9.05549 22.3801 8.94981 22.2217 8.89697C22.0526 8.84413 21.8731 8.86528 21.7252 8.94981C21.7252 8.94981 21.7147 8.94981 21.7147 8.96035L19.9821 10.1648C19.7709 10.3127 19.6758 10.5663 19.7286 10.8198L20.2885 13.1652L20.3096 13.6194L20.3308 14.1899H23.4365V13.4504L24.3766 11.6121L23.7851 12.2037C23.6371 12.3411 23.4364 12.4257 23.2357 12.4257L23.2357 12.4257Z" fill="#FAFAFA"/>
</svg>
