<svg width="11" height="14" viewBox="0 0 11 14" fill="none" xmlns="http://www.w3.org/2000/svg">
<path d="M10.04 6.35996C9.81998 6.13995 9.53999 6.01998 9.21995 6.01998H9.17991C9.19986 5.72004 9.07989 5.40001 8.83993 5.16005C8.61992 4.94004 8.33993 4.82007 8.0199 4.82007C7.71995 4.82007 7.41986 4.94005 7.19986 5.16005L5.31982 7.04009C5.57987 7.36012 5.71979 7.68016 5.79986 8.04009C5.85985 8.42012 5.81981 8.74016 5.71992 9.00005C5.8399 9.04009 5.95988 9.06004 6.07985 9.06004H6.11989C6.09994 9.35998 6.21992 9.68 6.45987 9.91997C6.67988 10.14 6.95987 10.26 7.27991 10.26C7.57985 10.26 7.87994 10.14 8.09994 9.91997L10.0399 7.97997C10.4799 7.54011 10.4799 6.82008 10.0399 6.36L10.04 6.35996Z" fill="#052B54"/>
<path d="M6.42012 4.39995C6.58014 4.69989 6.62018 5.01992 6.58014 5.35992L7.00021 4.93984C7.10024 4.83982 7.20027 4.75988 7.32024 4.69989L8.18017 1.51992C8.26011 1.21998 8.22021 0.919889 8.06019 0.639889C7.90018 0.379846 7.66023 0.179925 7.36012 0.0998538C7.26009 0.0799041 7.16007 0.0598145 7.06018 0.0598145C6.54022 0.0598145 6.08014 0.419743 5.94021 0.919743L5.22021 3.57974C5.32024 3.59969 5.40018 3.59969 5.48026 3.63973C5.88008 3.75999 6.22008 4.03998 6.42011 4.39991L6.42012 4.39995Z" fill="#052B54"/>
<path d="M2.24001 5.15995L4.24001 3.80002H4.25996L3.47996 0.919987C3.33989 0.419987 2.87992 0.0600586 2.35999 0.0600586C2.25996 0.0600586 2.15993 0.0800083 2.06005 0.100098C1.76011 0.180037 1.52001 0.380091 1.35998 0.640134C1.19994 0.900177 1.15992 1.22006 1.24 1.52017L2.24001 5.15995Z" fill="#052B54"/>
<path d="M7.30006 10.6C6.9001 10.6 6.54002 10.44 6.26002 10.16C6.11996 10.0199 5.99998 9.86003 5.93999 9.65998L4.49999 10.5L5.21999 9.32001C5.26003 9.26002 5.38001 9.08006 5.45995 8.80005C5.4799 8.74006 5.49999 8.68007 5.49999 8.59999V8.55995V8.49996V8.45992V8.37998C5.49999 8.30004 5.49999 8.20002 5.48004 8.09999C5.48004 8.08004 5.48004 8.05995 5.46009 8.04C5.46009 7.99996 5.44014 7.96006 5.44014 7.92002C5.44014 7.90007 5.44014 7.90007 5.42019 7.87998C5.42019 7.86003 5.40024 7.81999 5.40024 7.80004C5.40024 7.78009 5.38029 7.78009 5.38029 7.76C5.38029 7.74005 5.36034 7.71997 5.36034 7.70002C5.36034 7.68007 5.34039 7.65998 5.34039 7.64003C5.32044 7.59999 5.30035 7.56009 5.2804 7.54C5.2804 7.52005 5.26045 7.49996 5.24036 7.48001C5.22041 7.46006 5.22041 7.43997 5.20032 7.42002C5.18037 7.40007 5.18037 7.37998 5.16028 7.36003C5.14033 7.34008 5.12024 7.31999 5.12024 7.30004C5.12024 7.28009 5.1003 7.28009 5.1003 7.26L5.02022 7.17992C4.88015 7.0199 4.70019 6.83994 4.50025 6.69989L5.56025 6.17992C5.8602 6.03985 6.08022 5.77996 6.18022 5.45992C6.28025 5.13989 6.26016 4.81985 6.10028 4.51992C5.94026 4.21998 5.68021 4.01992 5.38028 3.91988C5.06025 3.81986 4.72028 3.85989 4.44028 4.01991C4.44028 4.01991 4.42033 4.01991 4.42033 4.03986L1.14018 6.32001C0.74022 6.6 0.560256 7.08004 0.660149 7.55997L1.72015 12L1.76019 12.8599L1.80023 13.9398H7.68023V12.5399L9.46023 9.05983L8.34026 10.1798C8.06013 10.44 7.68012 10.6 7.30009 10.6L7.30006 10.6Z" fill="#052B54"/>
</svg>
