<svg width="23" height="22" viewBox="0 0 23 22" fill="none" xmlns="http://www.w3.org/2000/svg">
<path d="M11.8179 0C5.46987 0 0.317871 5.02897 0.317871 11.2254C0.317871 17.4218 5.46987 22.4507 11.8179 22.4507H17.5679V20.2057H11.8179C6.82687 20.2057 2.61787 16.0972 2.61787 11.2254C2.61787 6.35356 6.82687 2.24507 11.8179 2.24507C16.8089 2.24507 21.0179 6.35356 21.0179 11.2254V12.8306C21.0179 13.7174 20.2014 14.593 19.2929 14.593C18.3844 14.593 17.5679 13.7174 17.5679 12.8306V11.2254C17.5679 8.12717 14.9919 5.61269 11.8179 5.61269C8.64387 5.61269 6.06787 8.12717 6.06787 11.2254C6.06787 14.3236 8.64387 16.8381 11.8179 16.8381C13.4049 16.8381 14.8539 16.2094 15.8889 15.1879C16.6364 16.187 17.9244 16.8381 19.2929 16.8381C21.5584 16.8381 23.3179 15.042 23.3179 12.8306V11.2254C23.3179 5.02897 18.1659 0 11.8179 0ZM11.8179 14.593C9.90887 14.593 8.36787 13.0888 8.36787 11.2254C8.36787 9.36196 9.90887 7.85776 11.8179 7.85776C13.7269 7.85776 15.2679 9.36196 15.2679 11.2254C15.2679 13.0888 13.7269 14.593 11.8179 14.593Z" fill="#879999"/>
</svg>
