<svg width="428" height="290" viewBox="0 0 428 290" fill="none" xmlns="http://www.w3.org/2000/svg">
<rect width="428" height="290" fill="#E5E5E5"/>
<g clip-path="url(#clip0_0_1)">
<rect y="-598" width="428" height="926" rx="25" fill="url(#paint0_linear_0_1)"/>
<path d="M613.824 158.918C585.917 316.474 144.344 610.002 -14.955 581.786C-174.254 553.571 -77.79 209.139 -49.8831 51.5826C-21.9763 -105.974 58.108 22.2644 217.407 50.4798C376.706 78.6952 641.73 1.36099 613.824 158.918Z" fill="url(#paint1_linear_0_1)" fill-opacity="0.27"/>
<path d="M-220.225 152.666C-73.0463 65.1666 381.323 62.9408 430.951 146.417C480.578 229.894 142.435 406.541 -4.74375 494.04C-151.923 581.54 -79.6735 467.896 -129.301 384.42C-178.929 300.943 -367.404 240.165 -220.225 152.666Z" fill="url(#paint2_linear_0_1)" fill-opacity="0.05"/>
<path d="M516.867 152.665C369.873 146.075 24.7419 328.692 21.0043 412.064C17.2666 495.435 345.095 492.103 492.088 498.693C639.082 505.283 538.25 448.493 541.988 365.122C545.726 281.75 663.861 159.255 516.867 152.665Z" fill="#F78764" fill-opacity="0.13"/>
</g>
<defs>
<linearGradient id="paint0_linear_0_1" x1="0" y1="-375.5" x2="428" y2="-375.5" gradientUnits="userSpaceOnUse">
<stop offset="0.438023" stop-color="#FAFAFA"/>
</linearGradient>
<linearGradient id="paint1_linear_0_1" x1="268.609" y1="346.225" x2="300.04" y2="49.3613" gradientUnits="userSpaceOnUse">
<stop offset="0.0208333" stop-color="#F78764" stop-opacity="0.76"/>
<stop offset="1" stop-color="#F78764" stop-opacity="0"/>
</linearGradient>
<linearGradient id="paint2_linear_0_1" x1="99.0573" y1="177.427" x2="-151.898" y2="372.355" gradientUnits="userSpaceOnUse">
<stop offset="0.0208333" stop-color="#F78764"/>
<stop offset="1" stop-color="#DA4167"/>
</linearGradient>
<clipPath id="clip0_0_1">
<rect y="-598" width="428" height="926" rx="25" fill="white"/>
</clipPath>
</defs>
</svg>
