<svg width="40" height="40" viewBox="0 0 40 40" fill="none" xmlns="http://www.w3.org/2000/svg">
<path d="M20 5C11.7263 5 5 11.5021 5 19.5C5 27.4979 11.7263 34 20 34C28.2737 34 35 27.4979 35 19.5C35 11.5021 28.2737 5 20 5ZM27.5158 14.3105L24.1053 22.5832C23.9473 22.9801 23.6 23.3158 23.1896 23.4683L14.6317 26.7654C13.3054 27.2843 11.9791 26.0022 12.5159 24.7201L15.8947 16.417C16.0527 16.02 16.4001 15.6843 16.8104 15.5318L25.3683 12.2654C26.6946 11.7465 28.0209 13.0285 27.5158 14.3106V14.3105Z" fill="#083D77"/>
<path d="M21.5 20C21.5 21.1045 20.6045 22 19.5 22C18.3955 22 17.5 21.1045 17.5 20C17.5 18.8955 18.3955 18 19.5 18C20.6045 18 21.5 18.8955 21.5 20Z" fill="#083D77"/>
</svg>
