<svg width="27" height="26" viewBox="0 0 27 26" fill="none" xmlns="http://www.w3.org/2000/svg">
<path d="M26.9355 12.4042C26.8655 12.5787 26.7425 12.7288 26.5824 12.8349C26.4223 12.9409 26.2328 12.998 26.0385 12.9985H23.1449V23.214C23.1449 23.9529 22.8401 24.6615 22.2974 25.184C21.7548 25.7065 21.0188 26 20.2514 26H16.3934C16.1376 26 15.8922 25.9022 15.7113 25.728C15.5305 25.5538 15.4288 25.3176 15.4288 25.0713V19.4993H11.5708V25.0713C11.5708 25.3176 11.4692 25.5538 11.2883 25.728C11.1074 25.9022 10.8621 26 10.6063 26H6.74825C5.98084 26 5.24486 25.7065 4.70222 25.184C4.15958 24.6615 3.85472 23.9529 3.85472 23.214V12.9985H0.961192C0.768008 12.9979 0.579475 12.9414 0.420017 12.8364C0.260559 12.7314 0.137525 12.5827 0.0668542 12.4096C-0.0038166 12.2364 -0.0188676 12.0469 0.023651 11.8654C0.0661696 11.684 0.164298 11.519 0.305325 11.3919L12.844 0.24776C13.0223 0.088496 13.2566 0 13.4998 0C13.7431 0 13.9773 0.088496 14.1557 0.24776L26.6943 11.3919C26.8347 11.5183 26.9326 11.6822 26.9756 11.8625C27.0186 12.0429 27.0046 12.2315 26.9355 12.4042Z" fill="#083D77"/>
</svg>
