<svg width="40" height="40" viewBox="0 0 40 40" fill="none" xmlns="http://www.w3.org/2000/svg">
<path d="M16.1035 6H23.7308C24.08 6 24.3634 6.46411 24.3634 6.8406V32.848C24.3634 33.3121 24.08 33.6886 23.7308 33.6886H16.1035C15.7542 33.6886 15.4709 33.2245 15.4709 32.848V6.8406C15.4709 6.37649 15.7542 6 16.1035 6V6Z" fill="#083D77"/>
<path d="M5.63259 17.5161H13.2599C13.6091 17.5161 13.8925 17.9802 13.8925 18.3567V32.8436C13.8925 33.3078 13.6091 33.6842 13.2599 33.6842H5.63259C5.28333 33.6842 5 33.2201 5 32.8436V18.3567C5 17.8926 5.28333 17.5161 5.63259 17.5161V17.5161Z" fill="#083D77"/>
<path d="M26.5734 11.9424H34.2007C34.5499 11.9424 34.8333 12.4065 34.8333 12.783V32.8438C34.8333 33.3079 34.5499 33.6844 34.2007 33.6844H26.5734C26.2241 33.6844 25.9408 33.2203 25.9408 32.8438V12.783C25.9408 12.3189 26.2241 11.9424 26.5734 11.9424Z" fill="#083D77"/>
</svg>
