<svg width="24" height="29" viewBox="0 0 24 29" fill="none" xmlns="http://www.w3.org/2000/svg">
<path d="M20.0896 10.0044H19.0929V7.02953C19.0929 3.15295 15.8625 0 11.8918 0C7.92105 0 4.69062 3.15328 4.69062 7.02953V10.0044H3.69394C1.8729 10.0044 0.391602 11.451 0.391602 13.2286V25.4792C0.391602 27.2568 1.8729 28.7027 3.69394 28.7027H20.0893C21.9103 28.7027 23.3916 27.2568 23.3916 25.4792V13.2283C23.3919 11.4507 21.9107 10.0044 20.0896 10.0044ZM7.62611 7.02919C7.62611 4.73315 9.53956 2.86539 11.8918 2.86539C14.244 2.86539 16.1574 4.73315 16.1574 7.02919V10.0041H7.62611V7.02919Z" fill="#879999"/>
</svg>
