<?xml version="1.0" encoding="UTF-8" standalone="no" ?>
<!DOCTYPE svg PUBLIC "-//W3C//DTD SVG 1.1//EN" "http://www.w3.org/Graphics/SVG/1.1/DTD/svg11.dtd">
<svg xmlns="http://www.w3.org/2000/svg" xmlns:xlink="http://www.w3.org/1999/xlink" version="1.1" width="500" height="500" viewBox="0 0 500 500" xml:space="preserve">
<desc>Created with Fabric.js 4.6.0</desc>
<defs>
</defs>
<g transform="matrix(16.59 0 0 16.59 250 250)" id="Fmmzs6rlib48aCjm1TPcF"  >
<path style="stroke: none; stroke-width: 1; stroke-dasharray: none; stroke-linecap: butt; stroke-dashoffset: 0; stroke-linejoin: miter; stroke-miterlimit: 4; fill: rgb(250,250,250); fill-rule: nonzero; opacity: 1;" vector-effect="non-scaling-stroke"  transform=" translate(-108.5, -105.52)" d="M 118.134 94.0002 L 98.8658 94.0002 C 97.5766 94.004 96.3411 94.518 95.4293 95.4295 C 94.5178 96.3413 94.0038 97.5768 94 98.866 L 94 112.179 C 94.0038 113.468 94.5178 114.703 95.4293 115.615 C 96.3411 116.527 97.5766 117.041 98.8658 117.045 L 118.134 117.045 C 119.423 117.041 120.659 116.527 121.571 115.615 C 122.482 114.703 122.996 113.468 123 112.179 L 123 109.376 L 116.733 109.376 C 115.958 109.377 115.215 109.07 114.667 108.522 C 114.119 107.974 113.812 107.231 113.813 106.457 L 113.813 104.588 C 113.812 103.813 114.119 103.07 114.667 102.522 C 115.215 101.975 115.958 101.668 116.733 101.668 L 123 101.668 L 123 98.8658 C 122.996 97.5766 122.482 96.3411 121.571 95.4293 C 120.659 94.5178 119.423 94.0038 118.134 94 L 118.134 94.0002 Z M 105.23 97.8928 L 98.8656 97.8928 C 98.6069 97.8955 98.3579 97.7937 98.1749 97.6107 C 97.9919 97.4277 97.89 97.1787 97.8925 96.9197 C 97.8947 96.4581 98.2191 96.0606 98.6712 95.966 C 98.7347 95.95 98.8002 95.9435 98.8656 95.9465 L 105.23 95.9465 C 105.767 95.9481 106.202 96.3831 106.203 96.9197 C 106.206 97.1787 106.104 97.4277 105.921 97.6107 C 105.738 97.7937 105.489 97.8955 105.23 97.8928 L 105.23 97.8928 Z M 116.733 103.615 L 123 103.615 L 123 107.43 L 116.733 107.43 C 116.474 107.432 116.225 107.331 116.042 107.148 C 115.859 106.965 115.757 106.716 115.76 106.457 L 115.76 104.588 C 115.757 104.329 115.859 104.08 116.042 103.897 C 116.225 103.714 116.474 103.613 116.733 103.615 L 116.733 103.615 Z" stroke-linecap="round" />
</g>
</svg>