<svg width="158" height="101" viewBox="0 0 158 101" fill="none" xmlns="http://www.w3.org/2000/svg">
<path d="M30.1491 57.7061C34.3131 48.2765 38.6358 43.4625 38.6358 43.4625C44.7284 43.2733 50.3135 43.2733 54.3753 43.5256C54.9465 43.1473 56.3427 41.0667 55.8984 40.6883C52.0905 40.31 45.9977 39.8688 39.3339 39.6796C37.5568 38.5446 34.6375 37.3467 33.3682 37.4098C32.4796 37.4098 31.6544 38.86 31.2738 39.4904C21.1192 39.3013 11.2186 39.7427 6.71251 40.7515C5.44319 41.445 3.34882 46.1106 3.79308 46.8041C9.25113 45.5433 18.6441 44.6606 28.4178 44.03C27.8747 44.388 23.9136 50.2208 20.8196 57.2646C17.7733 64.2003 10.1574 82.4217 10.1574 88.2854C10.4747 89.8617 15.6789 93.4554 18.3444 93.5185C18.2175 93.3922 18.0906 92.7618 18.0906 92.3835C18.0906 87.8439 25.8334 67.4788 30.1491 57.7061Z" fill="#011E3F"/>
<path d="M33.5925 80.294C33.4685 83.7154 39.3501 87.8339 43.8077 87.7073C44.6127 87.6438 53.2802 74.9082 59.3476 65.3407C57.676 69.5226 53.4042 81.1811 53.4042 83.0819C53.4042 84.7925 58.1713 88.024 60.9573 88.5309C60.2143 86.6301 62.3814 80.0405 64.6102 73.641C65.9102 69.9028 67.458 65.8477 70.306 59.3848C71.1108 57.484 72.6586 54.6962 73.4016 54.2525C73.3396 53.6825 69.0058 50.8312 67.1485 51.1479C65.7865 51.4013 44.2412 82.7017 42.1982 82.7017C41.9504 82.7017 41.8267 82.4483 41.8267 82.0047C42.1982 77.3793 47.6463 65.2774 50.3086 59.5749C51.1754 57.7376 52.6612 54.8863 53.4042 54.4426C53.7757 54.316 49.4418 51.338 47.213 51.338C46.7795 51.338 46.408 51.4013 46.1605 51.7182C40.8979 58.7513 33.778 77.5694 33.5925 80.294Z" fill="#011E3F"/>
<path d="M87.6006 49.8765C84.9974 49.8765 81.5052 52.7422 78.4575 56.8178C73.1875 63.8863 68.4252 74.5211 68.4252 80.1887C68.4252 83.6275 74.3302 87.8304 78.9018 87.8304C80.2987 87.8304 85.8227 79.9341 91.5373 71.2097C90.4579 73.8843 87.8547 81.335 87.8547 83.0543C87.8547 84.7737 92.7436 88.0215 95.6009 88.5309C95.474 88.2125 95.4104 87.7031 95.4104 87.1299C95.474 84.5826 96.9978 79.9341 98.8392 74.6484C100.172 70.8914 102.014 65.8605 105.061 59.4287C105.95 57.582 107.474 54.7164 108.236 54.2705C108.109 53.5065 104.046 50.9591 101.76 51.0229C101.379 51.0229 100.935 51.4048 100.744 51.5959C100.109 52.2963 99.1566 53.7611 98.1406 55.7352C96.4263 51.4686 91.6642 49.8765 87.6006 49.8765ZM76.6796 82.2901C76.4891 74.8394 86.9022 54.4615 92.5531 54.4615C94.6484 54.4615 95.6009 56.3719 96.2358 58.2825C90.7117 67.7071 79.6638 83.3727 77.4414 83.3727C76.997 83.3727 76.6796 82.8633 76.6796 82.2901Z" fill="#011E3F"/>
<path d="M110.751 88.5309C109.946 86.6375 111.432 82.2827 113.537 75.9081C116.447 67.0089 124.123 49.842 126.29 45.5504C127.219 43.72 128.643 40.8798 129.386 40.4381C129.262 39.87 125.485 37.3454 123.257 37.4086C122.885 37.4086 122.39 37.7873 122.204 38.0396C121.276 39.0496 119.666 42.1421 118.366 44.7929C116.385 48.769 112.361 57.7312 110.442 62.4647C105.736 73.7622 103.26 81.7778 103.26 83.1663C103.322 84.8703 107.903 88.026 110.751 88.5309Z" fill="#011E3F"/>
<path d="M129.698 72.1572C130.559 72.1572 132.341 72.3499 134.37 71.8362C140.332 70.4236 150.535 63.6174 150.535 58.9943C150.535 53.8576 145.495 49.8765 140.332 49.8765C131.05 49.8765 119.433 69.1394 119.433 79.4771C119.433 83.5866 124.719 88.5309 129.821 88.5309C135.66 88.5309 146.724 78.0005 149.06 73.5058C149.245 73.0562 149.614 71.3869 148.937 71.3226C141.377 79.2204 133.57 83.8435 129.575 83.8435C128.469 83.8435 127.608 82.8162 127.608 81.0183C127.608 78.5782 128.407 75.432 129.698 72.1572ZM144.143 56.6828C142.914 62.2048 137.75 66.8922 134.738 68.3048C133.263 69.0111 132.403 69.0754 130.989 69.2037C134.493 61.6912 140.086 54.0503 143.098 54.0503C144.081 54.0503 144.512 55.0133 144.143 56.6828Z" fill="#011E3F"/>
<path d="M35.5768 1.8356C34.6097 0.211551 32.5099 -0.32063 30.8864 0.646937C29.2632 1.61451 28.7314 3.71541 29.6984 5.33947L35.5768 1.8356ZM39.4151 21.6568C40.3824 23.2808 42.4823 23.813 44.1055 22.8454C45.7287 21.8778 46.2608 19.7769 45.2934 18.1529L39.4151 21.6568ZM85.4471 3.53284C85.4168 1.64264 83.8609 0.134837 81.9715 0.16505C80.0824 0.195263 78.5753 1.75205 78.6054 3.64223L85.4471 3.53284ZM78.9088 22.6335C78.9391 24.5237 80.495 26.0315 82.3844 26.0013C84.2738 25.9711 85.7806 24.4143 85.7506 22.5241L78.9088 22.6335ZM134.657 5.33947C135.625 3.71541 135.093 1.61451 133.47 0.646937C131.846 -0.32063 129.746 0.211551 128.779 1.8356L134.657 5.33947ZM119.062 18.1529C118.095 19.7769 118.627 21.8778 120.25 22.8454C121.874 23.813 123.974 23.2808 124.941 21.6568L119.062 18.1529ZM29.6984 5.33947L39.4151 21.6568L45.2934 18.1529L35.5768 1.8356L29.6984 5.33947ZM78.6054 3.64223L78.9088 22.6335L85.7506 22.5241L85.4471 3.53284L78.6054 3.64223ZM128.779 1.8356L119.062 18.1529L124.941 21.6568L134.657 5.33947L128.779 1.8356Z" fill="#011E3F"/>
</svg>
