<svg width="25" height="25" viewBox="0 0 25 25" fill="none" xmlns="http://www.w3.org/2000/svg">
<path d="M18.8251 7.325C18.8251 3.84625 15.9789 1 12.5001 1C9.02139 1 6.17514 3.84625 6.17514 7.325C6.17514 10.8037 9.02139 13.65 12.5001 13.65C15.9789 13.65 18.8251 10.8037 18.8251 7.325Z" fill="#879999"/>
<path d="M15.0013 14.9725C14.1963 15.2313 13.3625 15.375 12.5 15.375C11.6375 15.375 10.8037 15.2313 9.99875 14.9725C7.46875 14.1388 4.65125 14.8288 2.98375 16.87C1.7475 18.3938 1 20.3488 1 22.4475C1 23.6263 1.94875 24.575 3.1275 24.575H21.8725C23.0512 24.575 24 23.6263 24 22.4475C24 20.3488 23.2525 18.3938 22.0162 16.87C20.32 14.8288 17.5313 14.1388 15.0013 14.9725Z" fill="#879999"/>
</svg>
