<svg width="21" height="21" viewBox="0 0 21 21" fill="none" xmlns="http://www.w3.org/2000/svg">
<path d="M20.3198 2.49304C20.6982 2.1047 20.6982 1.48546 20.3198 1.09712L19.6011 0.359786C19.2086 -0.0429337 18.5614 -0.0429338 18.1689 0.359786L11.2161 7.49357C10.8236 7.89629 10.1764 7.89629 9.78386 7.49357L2.83114 0.359786C2.43864 -0.0429338 1.79136 -0.0429338 1.39886 0.359786L0.680245 1.09712C0.301761 1.48546 0.301761 2.1047 0.680246 2.49304L7.70475 9.70048C8.08324 10.0888 8.08324 10.7081 7.70475 11.0964L0.680245 18.3038C0.301761 18.6922 0.301761 19.3114 0.680246 19.6998L1.39886 20.4371C1.79136 20.8398 2.43864 20.8398 2.83114 20.4371L9.78386 13.3033C10.1764 12.9006 10.8236 12.9006 11.2161 13.3033L18.1689 20.4371C18.5614 20.8398 19.2086 20.8398 19.6011 20.4371L20.3198 19.6998C20.6982 19.3114 20.6982 18.6922 20.3198 18.3038L13.2952 11.0964C12.9168 10.7081 12.9168 10.0888 13.2952 9.70048L20.3198 2.49304Z" fill="#4C4C4C"/>
</svg>
